<svg width="309" height="92" viewBox="0 0 309 92" fill="none" xmlns="http://www.w3.org/2000/svg">
<g filter="url(#filter0_d_106_159)">
<path d="M20.2459 53L13.2379 40.28H11.2699V53H3.06194V19.304H16.8379C19.4939 19.304 21.7499 19.768 23.6059 20.696C25.4939 21.624 26.9019 22.904 27.8299 24.536C28.7579 26.136 29.2219 27.928 29.2219 29.912C29.2219 32.152 28.5819 34.152 27.3019 35.912C26.0539 37.672 24.1979 38.92 21.7339 39.656L29.5099 53H20.2459ZM11.2699 34.472H16.3579C17.8619 34.472 18.9819 34.104 19.7179 33.368C20.4859 32.632 20.8699 31.592 20.8699 30.248C20.8699 28.968 20.4859 27.96 19.7179 27.224C18.9819 26.488 17.8619 26.12 16.3579 26.12H11.2699V34.472ZM38.5024 23.432C37.0624 23.432 35.8784 23.016 34.9504 22.184C34.0544 21.32 33.6064 20.264 33.6064 19.016C33.6064 17.736 34.0544 16.68 34.9504 15.848C35.8784 14.984 37.0624 14.552 38.5024 14.552C39.9104 14.552 41.0624 14.984 41.9584 15.848C42.8864 16.68 43.3504 17.736 43.3504 19.016C43.3504 20.264 42.8864 21.32 41.9584 22.184C41.0624 23.016 39.9104 23.432 38.5024 23.432ZM42.5824 26.216V53H34.3744V26.216H42.5824ZM46.8987 39.608C46.8987 36.824 47.4587 34.392 48.5787 32.312C49.7307 30.232 51.3147 28.632 53.3307 27.512C55.3787 26.392 57.7147 25.832 60.3387 25.832C63.6987 25.832 66.4987 26.712 68.7387 28.472C71.0107 30.232 72.4987 32.712 73.2027 35.912H64.4667C63.7307 33.864 62.3067 32.84 60.1947 32.84C58.6907 32.84 57.4907 33.432 56.5947 34.616C55.6987 35.768 55.2507 37.432 55.2507 39.608C55.2507 41.784 55.6987 43.464 56.5947 44.648C57.4907 45.8 58.6907 46.376 60.1947 46.376C62.3067 46.376 63.7307 45.352 64.4667 43.304H73.2027C72.4987 46.44 71.0107 48.904 68.7387 50.696C66.4667 52.488 63.6667 53.384 60.3387 53.384C57.7147 53.384 55.3787 52.824 53.3307 51.704C51.3147 50.584 49.7307 48.984 48.5787 46.904C47.4587 44.824 46.8987 42.392 46.8987 39.608ZM93.9612 53L85.8012 41.768V53H77.5932V17.48H85.8012V37.112L93.9132 26.216H104.041L92.9052 39.656L104.137 53H93.9612ZM143.213 53L140.093 49.976C136.989 52.344 133.277 53.528 128.957 53.528C126.365 53.528 124.109 53.112 122.189 52.28C120.269 51.416 118.781 50.216 117.725 48.68C116.701 47.112 116.189 45.288 116.189 43.208C116.189 41.096 116.749 39.192 117.869 37.496C119.021 35.768 120.733 34.36 123.005 33.272C122.173 32.248 121.581 31.272 121.229 30.344C120.877 29.384 120.701 28.344 120.701 27.224C120.701 25.624 121.117 24.168 121.949 22.856C122.781 21.544 123.981 20.52 125.549 19.784C127.149 19.016 129.037 18.632 131.213 18.632C133.421 18.632 135.293 19.032 136.829 19.832C138.365 20.632 139.517 21.704 140.285 23.048C141.053 24.392 141.405 25.864 141.341 27.464H133.613C133.645 26.6 133.421 25.944 132.941 25.496C132.493 25.016 131.885 24.776 131.117 24.776C130.349 24.776 129.709 25 129.197 25.448C128.685 25.896 128.429 26.472 128.429 27.176C128.429 27.848 128.637 28.552 129.053 29.288C129.501 30.024 130.189 30.872 131.117 31.832L139.325 39.848C139.389 39.688 139.469 39.496 139.565 39.272C139.693 39.048 139.821 38.792 139.949 38.504L141.725 35.48H149.933L147.629 39.656C146.765 41.544 145.773 43.336 144.653 45.032L152.765 53H143.213ZM129.341 46.904C131.485 46.904 133.389 46.296 135.053 45.08L127.565 37.832C125.261 39.016 124.109 40.616 124.109 42.632C124.109 43.848 124.573 44.872 125.501 45.704C126.461 46.504 127.741 46.904 129.341 46.904ZM204.066 19.304V53H195.858V32.792L188.322 53H181.698L174.114 32.744V53H165.906V19.304H175.602L185.058 42.632L194.418 19.304H204.066ZM222.16 53.384C219.536 53.384 217.168 52.824 215.056 51.704C212.976 50.584 211.328 48.984 210.112 46.904C208.928 44.824 208.336 42.392 208.336 39.608C208.336 36.856 208.944 34.44 210.16 32.36C211.376 30.248 213.04 28.632 215.152 27.512C217.264 26.392 219.632 25.832 222.256 25.832C224.88 25.832 227.248 26.392 229.36 27.512C231.472 28.632 233.136 30.248 234.352 32.36C235.568 34.44 236.176 36.856 236.176 39.608C236.176 42.36 235.552 44.792 234.304 46.904C233.088 48.984 231.408 50.584 229.264 51.704C227.152 52.824 224.784 53.384 222.16 53.384ZM222.16 46.28C223.728 46.28 225.056 45.704 226.144 44.552C227.264 43.4 227.824 41.752 227.824 39.608C227.824 37.464 227.28 35.816 226.192 34.664C225.136 33.512 223.824 32.936 222.256 32.936C220.656 32.936 219.328 33.512 218.272 34.664C217.216 35.784 216.688 37.432 216.688 39.608C216.688 41.752 217.2 43.4 218.224 44.552C219.28 45.704 220.592 46.28 222.16 46.28ZM248.739 30.68C249.699 29.208 250.899 28.056 252.339 27.224C253.779 26.36 255.379 25.928 257.139 25.928V34.616H254.883C252.835 34.616 251.299 35.064 250.275 35.96C249.251 36.824 248.739 38.36 248.739 40.568V53H240.531V26.216H248.739V30.68ZM275.99 46.04V53H271.814C268.838 53 266.518 52.28 264.854 50.84C263.19 49.368 262.358 46.984 262.358 43.688V33.032H259.094V26.216H262.358V19.688H270.566V26.216H275.942V33.032H270.566V43.784C270.566 44.584 270.758 45.16 271.142 45.512C271.526 45.864 272.166 46.04 273.062 46.04H275.99ZM307.922 26.216L291.122 65.72H282.29L288.434 52.088L277.538 26.216H286.706L292.898 42.968L299.042 26.216H307.922Z" fill="url(#paint0_linear_106_159)"/>
</g>
<path d="M78.1338 77C78.1338 75.6267 78.4338 74.4 79.0338 73.32C79.6338 72.2267 80.4538 71.38 81.4938 70.78C82.5338 70.1667 83.6938 69.86 84.9738 69.86C86.5338 69.86 87.8672 70.2333 88.9738 70.98C90.0938 71.7133 90.9072 72.7533 91.4138 74.1H89.7738C89.3738 73.1533 88.7605 72.4133 87.9338 71.88C87.1205 71.3467 86.1338 71.08 84.9738 71.08C83.9472 71.08 83.0205 71.32 82.1938 71.8C81.3805 72.28 80.7405 72.9733 80.2738 73.88C79.8072 74.7733 79.5738 75.8133 79.5738 77C79.5738 78.1867 79.8072 79.2267 80.2738 80.12C80.7405 81.0133 81.3805 81.7 82.1938 82.18C83.0205 82.66 83.9472 82.9 84.9738 82.9C86.1338 82.9 87.1205 82.64 87.9338 82.12C88.7605 81.5867 89.3738 80.8533 89.7738 79.92H91.4138C90.9072 81.2533 90.0938 82.2867 88.9738 83.02C87.8538 83.7533 86.5205 84.12 84.9738 84.12C83.6938 84.12 82.5338 83.82 81.4938 83.22C80.4538 82.6067 79.6338 81.76 79.0338 80.68C78.4338 79.6 78.1338 78.3733 78.1338 77ZM99.4035 72.88C100.23 72.88 100.97 73.0533 101.624 73.4C102.29 73.7467 102.81 74.28 103.184 75C103.57 75.7067 103.764 76.5733 103.764 77.6V84H102.384V77.76C102.384 76.5733 102.084 75.6667 101.484 75.04C100.897 74.4133 100.09 74.1 99.0635 74.1C98.0102 74.1 97.1702 74.4333 96.5435 75.1C95.9168 75.7667 95.6035 76.7467 95.6035 78.04V84H94.2035V69.2H95.6035V74.94C95.9502 74.2867 96.4568 73.78 97.1235 73.42C97.8035 73.06 98.5635 72.88 99.4035 72.88ZM106.22 78.52C106.22 77.4 106.44 76.42 106.88 75.58C107.333 74.7267 107.953 74.0733 108.74 73.62C109.54 73.1533 110.44 72.92 111.44 72.92C112.48 72.92 113.373 73.16 114.12 73.64C114.88 74.12 115.426 74.7333 115.76 75.48V73.08H117.16V84H115.76V81.58C115.413 82.3267 114.86 82.9467 114.1 83.44C113.353 83.92 112.46 84.16 111.42 84.16C110.433 84.16 109.54 83.9267 108.74 83.46C107.953 82.9933 107.333 82.3333 106.88 81.48C106.44 80.6267 106.22 79.64 106.22 78.52ZM115.76 78.54C115.76 77.66 115.58 76.8867 115.22 76.22C114.86 75.5533 114.366 75.04 113.74 74.68C113.126 74.32 112.446 74.14 111.7 74.14C110.926 74.14 110.233 74.3133 109.62 74.66C109.006 75.0067 108.52 75.5133 108.16 76.18C107.813 76.8333 107.64 77.6133 107.64 78.52C107.64 79.4133 107.813 80.2 108.16 80.88C108.52 81.5467 109.006 82.06 109.62 82.42C110.233 82.7667 110.926 82.94 111.7 82.94C112.446 82.94 113.126 82.76 113.74 82.4C114.366 82.04 114.86 81.5267 115.22 80.86C115.58 80.1933 115.76 79.42 115.76 78.54ZM121.756 75.02C122.063 74.34 122.529 73.8133 123.156 73.44C123.796 73.0667 124.576 72.88 125.496 72.88V74.34H125.116C124.103 74.34 123.289 74.6133 122.676 75.16C122.063 75.7067 121.756 76.62 121.756 77.9V84H120.356V73.08H121.756V75.02ZM126.962 78.52C126.962 77.4 127.182 76.42 127.622 75.58C128.075 74.7267 128.695 74.0733 129.482 73.62C130.282 73.1533 131.182 72.92 132.182 72.92C133.222 72.92 134.115 73.16 134.862 73.64C135.622 74.12 136.169 74.7333 136.502 75.48V73.08H137.902V84H136.502V81.58C136.155 82.3267 135.602 82.9467 134.842 83.44C134.095 83.92 133.202 84.16 132.162 84.16C131.175 84.16 130.282 83.9267 129.482 83.46C128.695 82.9933 128.075 82.3333 127.622 81.48C127.182 80.6267 126.962 79.64 126.962 78.52ZM136.502 78.54C136.502 77.66 136.322 76.8867 135.962 76.22C135.602 75.5533 135.109 75.04 134.482 74.68C133.869 74.32 133.189 74.14 132.442 74.14C131.669 74.14 130.975 74.3133 130.362 74.66C129.749 75.0067 129.262 75.5133 128.902 76.18C128.555 76.8333 128.382 77.6133 128.382 78.52C128.382 79.4133 128.555 80.2 128.902 80.88C129.262 81.5467 129.749 82.06 130.362 82.42C130.975 82.7667 131.669 82.94 132.442 82.94C133.189 82.94 133.869 82.76 134.482 82.4C135.109 82.04 135.602 81.5267 135.962 80.86C136.322 80.1933 136.502 79.42 136.502 78.54ZM140.458 78.54C140.458 77.4067 140.685 76.42 141.138 75.58C141.591 74.7267 142.218 74.0733 143.018 73.62C143.818 73.1533 144.731 72.92 145.758 72.92C147.105 72.92 148.211 73.2533 149.078 73.92C149.958 74.5867 150.525 75.4933 150.778 76.64H149.278C149.091 75.8533 148.685 75.24 148.058 74.8C147.445 74.3467 146.678 74.12 145.758 74.12C145.025 74.12 144.365 74.2867 143.778 74.62C143.191 74.9533 142.725 75.4533 142.378 76.12C142.045 76.7733 141.878 77.58 141.878 78.54C141.878 79.5 142.045 80.3133 142.378 80.98C142.725 81.6467 143.191 82.1467 143.778 82.48C144.365 82.8133 145.025 82.98 145.758 82.98C146.678 82.98 147.445 82.76 148.058 82.32C148.685 81.8667 149.091 81.24 149.278 80.44H150.778C150.525 81.56 149.958 82.46 149.078 83.14C148.198 83.82 147.091 84.16 145.758 84.16C144.731 84.16 143.818 83.9333 143.018 83.48C142.218 83.0133 141.591 82.36 141.138 81.52C140.685 80.6667 140.458 79.6733 140.458 78.54ZM155.184 74.26V81.04C155.184 81.7067 155.31 82.1667 155.564 82.42C155.817 82.6733 156.264 82.8 156.904 82.8H158.184V84H156.684C155.697 84 154.964 83.7733 154.484 83.32C154.004 82.8533 153.764 82.0933 153.764 81.04V74.26H152.244V73.08H153.764V70.34H155.184V73.08H158.184V74.26H155.184ZM170.373 77.98C170.373 78.46 170.359 78.8267 170.333 79.08H161.273C161.313 79.9067 161.513 80.6133 161.873 81.2C162.233 81.7867 162.706 82.2333 163.293 82.54C163.879 82.8333 164.519 82.98 165.213 82.98C166.119 82.98 166.879 82.76 167.493 82.32C168.119 81.88 168.533 81.2867 168.733 80.54H170.213C169.946 81.6067 169.373 82.48 168.493 83.16C167.626 83.8267 166.533 84.16 165.213 84.16C164.186 84.16 163.266 83.9333 162.453 83.48C161.639 83.0133 160.999 82.36 160.533 81.52C160.079 80.6667 159.853 79.6733 159.853 78.54C159.853 77.4067 160.079 76.4133 160.533 75.56C160.986 74.7067 161.619 74.0533 162.433 73.6C163.246 73.1467 164.173 72.92 165.213 72.92C166.253 72.92 167.159 73.1467 167.933 73.6C168.719 74.0533 169.319 74.6667 169.733 75.44C170.159 76.2 170.373 77.0467 170.373 77.98ZM168.953 77.94C168.966 77.1267 168.799 76.4333 168.453 75.86C168.119 75.2867 167.659 74.8533 167.073 74.56C166.486 74.2667 165.846 74.12 165.153 74.12C164.113 74.12 163.226 74.4533 162.493 75.12C161.759 75.7867 161.353 76.7267 161.273 77.94H168.953ZM174.334 75.02C174.641 74.34 175.107 73.8133 175.734 73.44C176.374 73.0667 177.154 72.88 178.074 72.88V74.34H177.694C176.681 74.34 175.867 74.6133 175.254 75.16C174.641 75.7067 174.334 76.62 174.334 77.9V84H172.934V73.08H174.334V75.02ZM183.94 84.16C182.687 84.16 181.66 83.8733 180.86 83.3C180.073 82.7133 179.633 81.92 179.54 80.92H180.98C181.047 81.5333 181.333 82.0333 181.84 82.42C182.36 82.7933 183.053 82.98 183.92 82.98C184.68 82.98 185.273 82.8 185.7 82.44C186.14 82.08 186.36 81.6333 186.36 81.1C186.36 80.7267 186.24 80.42 186 80.18C185.76 79.94 185.453 79.7533 185.08 79.62C184.72 79.4733 184.227 79.32 183.6 79.16C182.787 78.9467 182.127 78.7333 181.62 78.52C181.113 78.3067 180.68 77.9933 180.32 77.58C179.973 77.1533 179.8 76.5867 179.8 75.88C179.8 75.3467 179.96 74.8533 180.28 74.4C180.6 73.9467 181.053 73.5867 181.64 73.32C182.227 73.0533 182.893 72.92 183.64 72.92C184.813 72.92 185.76 73.22 186.48 73.82C187.2 74.4067 187.587 75.22 187.64 76.26H186.24C186.2 75.62 185.947 75.1067 185.48 74.72C185.027 74.32 184.4 74.12 183.6 74.12C182.893 74.12 182.32 74.2867 181.88 74.62C181.44 74.9533 181.22 75.3667 181.22 75.86C181.22 76.2867 181.347 76.64 181.6 76.92C181.867 77.1867 182.193 77.4 182.58 77.56C182.967 77.7067 183.487 77.8733 184.14 78.06C184.927 78.2733 185.553 78.48 186.02 78.68C186.487 78.88 186.887 79.1733 187.22 79.56C187.553 79.9467 187.727 80.46 187.74 81.1C187.74 81.6867 187.58 82.2133 187.26 82.68C186.94 83.1333 186.493 83.4933 185.92 83.76C185.347 84.0267 184.687 84.16 183.94 84.16ZM197.264 70.02V84H195.864V70.02H197.264ZM205.554 72.88C206.861 72.88 207.927 73.2867 208.754 74.1C209.581 74.9 209.994 76.0667 209.994 77.6V84H208.614V77.76C208.614 76.5733 208.314 75.6667 207.714 75.04C207.127 74.4133 206.321 74.1 205.294 74.1C204.241 74.1 203.401 74.4333 202.774 75.1C202.147 75.7667 201.834 76.7467 201.834 78.04V84H200.434V73.08H201.834V74.94C202.181 74.2733 202.681 73.7667 203.334 73.42C203.987 73.06 204.727 72.88 205.554 72.88ZM217.39 74.26H214.85V84H213.45V74.26H211.93V73.08H213.45V72.32C213.45 71.1333 213.75 70.26 214.35 69.7C214.964 69.14 215.95 68.86 217.31 68.86V70.06C216.404 70.06 215.764 70.2333 215.39 70.58C215.03 70.9267 214.85 71.5067 214.85 72.32V73.08H217.39V74.26ZM224.374 84.16C223.347 84.16 222.421 83.9333 221.594 83.48C220.781 83.0133 220.134 82.36 219.654 81.52C219.187 80.6667 218.954 79.6733 218.954 78.54C218.954 77.4067 219.194 76.42 219.674 75.58C220.154 74.7267 220.807 74.0733 221.634 73.62C222.461 73.1533 223.387 72.92 224.414 72.92C225.441 72.92 226.367 73.1533 227.194 73.62C228.034 74.0733 228.687 74.7267 229.154 75.58C229.634 76.42 229.874 77.4067 229.874 78.54C229.874 79.66 229.634 80.6467 229.154 81.5C228.674 82.3533 228.014 83.0133 227.174 83.48C226.334 83.9333 225.401 84.16 224.374 84.16ZM224.374 82.94C225.094 82.94 225.761 82.78 226.374 82.46C226.987 82.1267 227.481 81.6333 227.854 80.98C228.241 80.3133 228.434 79.5 228.434 78.54C228.434 77.58 228.247 76.7733 227.874 76.12C227.501 75.4533 227.007 74.96 226.394 74.64C225.781 74.3067 225.114 74.14 224.394 74.14C223.674 74.14 223.007 74.3067 222.394 74.64C221.781 74.96 221.287 75.4533 220.914 76.12C220.554 76.7733 220.374 77.58 220.374 78.54C220.374 79.5 220.554 80.3133 220.914 80.98C221.287 81.6333 221.774 82.1267 222.374 82.46C222.987 82.78 223.654 82.94 224.374 82.94Z" fill="white" fill-opacity="0.8"/>
<defs>
<filter id="filter0_d_106_159" x="3.06194" y="14.552" width="305.86" height="54.168" filterUnits="userSpaceOnUse" color-interpolation-filters="sRGB">
<feFlood flood-opacity="0" result="BackgroundImageFix"/>
<feColorMatrix in="SourceAlpha" type="matrix" values="0 0 0 0 0 0 0 0 0 0 0 0 0 0 0 0 0 0 127 0" result="hardAlpha"/>
<feOffset dx="1" dy="3"/>
<feComposite in2="hardAlpha" operator="out"/>
<feColorMatrix type="matrix" values="0 0 0 0 0.0704268 0 0 0 0 0.320833 0 0 0 0 0 0 0 0 1 0"/>
<feBlend mode="normal" in2="BackgroundImageFix" result="effect1_dropShadow_106_159"/>
<feBlend mode="normal" in="SourceGraphic" in2="effect1_dropShadow_106_159" result="shape"/>
</filter>
<linearGradient id="paint0_linear_106_159" x1="-3.66554e-06" y1="13.0345" x2="317.546" y2="54.4837" gradientUnits="userSpaceOnUse">
<stop stop-color="#70D600"/>
<stop offset="0.541667" stop-color="#239D01"/>
<stop offset="1" stop-color="#125200"/>
</linearGradient>
</defs>
</svg>
